<svg width="20" height="20" viewBox="0 0 20 20" fill="none" xmlns="http://www.w3.org/2000/svg">
<path d="M13.0142 16.6055L11.5888 17.0128C11.4777 17.0499 11.3481 17.0683 11.2186 17.0683C10.8484 17.0683 10.4966 16.9018 10.256 16.624C10.0153 16.3278 9.9042 15.9576 9.95973 15.5874L10.0708 14.847L4.8505 14.8469C4.51736 14.8469 4.25806 14.5877 4.25806 14.2544C4.25806 13.9397 4.51722 13.662 4.8505 13.662H10.3485C10.404 13.6065 10.441 13.5509 10.4966 13.4768L14.6432 8.73784L14.643 3.5916C14.643 3.05483 14.1987 2.61048 13.6435 2.61048H12.1441V1.94406C12.1441 1.40729 11.7183 1 11.2 1C10.6816 1 10.2743 1.40726 10.2743 1.94406V2.61048H8.77489V1.94406C8.77489 1.40729 8.34916 1 7.83083 1C7.3125 1 6.88677 1.40726 6.88677 1.94406V2.61048H5.38736L5.38723 1.94406C5.38723 1.40729 4.97997 1 4.44317 1C3.92484 1 3.49911 1.40726 3.49911 1.94406V2.61048H1.99956C1.46279 2.61048 1 3.05479 1 3.5916V17.4938C1 18.0306 1.44431 18.4934 1.99956 18.4934H13.6619C14.1987 18.4934 14.6615 18.0491 14.6615 17.4938L14.6616 15.0319L13.625 16.2166C13.4583 16.4018 13.2362 16.5313 13.0141 16.6055L13.0142 16.6055ZM4.85058 6.09093H10.7928C11.126 6.09093 11.3853 6.35009 11.3853 6.68337C11.3853 6.99805 11.1261 7.27581 10.7928 7.27581L4.85058 7.27568C4.51744 7.27568 4.25814 6.99806 4.25814 6.68324C4.25814 6.3501 4.53589 6.09093 4.85058 6.09093V6.09093ZM4.85058 9.88582H10.7928C11.126 9.88582 11.3853 10.145 11.3853 10.4783C11.3853 10.7929 11.1261 11.0707 10.7928 11.0707L4.85058 11.0706C4.51744 11.0706 4.25814 10.7929 4.25814 10.4781C4.25814 10.145 4.53589 9.88582 4.85058 9.88582V9.88582Z" fill="white"/>
<path d="M10.904 15.7353C10.8669 15.976 11.0891 16.1796 11.3483 16.1055L12.7551 15.6798C12.8107 15.6613 12.8662 15.6243 12.9032 15.5872L13.3105 15.1244L11.6259 13.625L11.2186 14.0878C11.1631 14.1433 11.1447 14.1988 11.1447 14.273L10.904 15.7353Z" fill="white"/>
<path d="M12.126 13.07L13.8106 14.5694L17.2908 10.5894L15.6062 9.1084L12.126 13.07Z" fill="white"/>
<path d="M18.475 8.7569L17.2902 7.72028C17.1421 7.59064 16.9385 7.60923 16.8089 7.73875L16.1055 8.53468L17.7901 10.0156L18.4935 9.21971C18.6231 9.09007 18.6045 8.88644 18.4749 8.75692L18.475 8.7569Z" fill="white"/>
</svg>
