<svg width="20" height="20" viewBox="0 0 20 20" fill="none" xmlns="http://www.w3.org/2000/svg">
<path d="M17.1428 19.0985V2.42917L13.1429 1.78201V2.36613L10.2858 1.64708V0.936612L6.45607 0L2.85714 0.938275V19.0986H0V20H20V19.0986L17.1428 19.0985ZM15.7142 4.40466L16.2856 4.52999V5.10568L15.7142 4.98035V4.40466ZM15.7142 6.21189L16.2856 6.3389V6.90831L15.7142 6.78298V6.21189ZM15.7142 7.10869L16.2856 7.23402V7.83949L15.7142 7.70829V7.10869ZM15.7142 8.02626L16.2856 8.14907V8.72836L15.7142 8.59968V8.02626ZM15.7142 10.7173L16.2856 10.8441V11.4449L15.7142 11.3133V10.7173ZM15.7142 12.5261L16.2856 12.6552V13.218L15.7142 13.0924V12.5261ZM15.7142 14.3325L16.2856 14.4629V15.0503L15.7142 14.9191V14.3325ZM14.857 3.2463L15.4284 3.3798V4.0165L14.857 3.89117V3.2463ZM14.857 5.11851L15.4284 5.24383V5.82585L14.857 5.69885V5.11851ZM14.857 6.92112L15.4284 7.04645V7.64248L14.857 7.51128V6.92112ZM14.857 8.72771L15.4284 8.8566V9.44071L14.857 9.31036V8.72771ZM14.857 9.63101L15.4284 9.76115V10.3308L14.857 10.2046V9.63101ZM14.857 11.4349L15.4284 11.5665V12.1409L14.857 12.012V11.4349ZM14.857 13.2308L15.4284 13.3563V13.9479L14.857 13.8178V13.2308ZM13.9998 3.04591L14.5712 3.17941V3.82871L13.9998 3.70339V3.04591ZM13.9998 4.93067L14.5712 5.05599V5.63528L13.9998 5.50827V4.93067ZM13.9998 5.83101L14.5712 5.95802V6.53269L13.9998 6.40736V5.83101ZM13.9998 7.63256L14.5712 7.76375V8.34218L13.9998 8.21308V7.63256ZM13.9998 9.43555L14.5712 9.56591V10.1404L13.9998 10.0142V9.43555ZM13.9998 11.238L14.5712 11.3691V11.9478L13.9998 11.8187V11.238ZM13.9998 12.14L14.5712 12.2688V12.8427L13.9998 12.7171V12.14ZM13.9998 13.9424L14.5712 14.0727V14.656L13.9998 14.5244V13.9424ZM13.9998 16.6453L15.4284 17.0356V18.7983H13.9998V16.6453ZM12.2855 3.74672L12.8568 3.88022V4.50458L12.2855 4.37925V3.74672ZM12.2855 5.60653L12.8568 5.73186V6.31618L12.2855 6.18918V5.60653ZM12.2855 8.32687L12.8568 8.44528V9.02876L12.2855 8.90007V8.32687ZM12.2855 10.1263L12.8568 10.2567V10.82L12.2855 10.6939V10.1263ZM12.2855 11.9323L12.8568 12.0641V12.6337L12.2855 12.5046V11.9323ZM12.2855 13.7187L12.8568 13.8443V14.443L12.2855 14.3129V13.7187ZM12.2855 18.7983H10.8569V16.6453L12.2855 17.0356V18.7983ZM11.4285 4.51711L11.9998 4.64244V5.21813L11.4285 5.09281V4.51711ZM11.4285 6.32182L11.9998 6.44883V7.02098L11.4285 6.89565V6.32182ZM11.4285 7.22136L11.9998 7.34669V7.94272L11.4285 7.81152V7.22136ZM11.4285 9.02795L11.9998 9.15684V9.74095L11.4285 9.6106V9.02795ZM11.4285 9.93103L11.9998 10.0612V10.6308L11.4285 10.5046V9.93103ZM11.4285 10.828L11.9998 10.9548V11.5482L11.4285 11.4166V10.828ZM11.4285 12.6333L11.9998 12.7622V13.3306L11.4285 13.2051V12.6333ZM11.4285 13.5308L11.9998 13.6563V14.248L11.4285 14.1178V13.5308ZM10.5713 3.34593L11.1427 3.47944V4.12874L10.5713 4.00341V3.34593ZM10.5713 5.23069L11.1427 5.35602V5.93531L10.5713 5.8083V5.23069ZM10.5713 7.03353L11.1427 7.15885V7.74586L10.5713 7.61467V7.03353ZM10.5713 8.83464L11.1427 8.96353V9.54577L10.5713 9.41562V8.83464ZM10.5713 10.6383L11.1427 10.7651V11.3511L10.5713 11.2199V10.6383ZM10.5713 11.5382L11.1427 11.6694V12.248L10.5713 12.1189V11.5382ZM10.5713 12.44L11.1427 12.5689V13.1427L10.5713 13.0172V12.44ZM8.57133 2.24391L9.1427 2.37741V3.00177L8.57133 2.87644V2.24391ZM8.57133 4.10372L9.1427 4.22905V4.81338L8.57133 4.68637V4.10372ZM8.57133 5.90655L9.1427 6.03188V6.63735L8.57133 6.50615V5.90655ZM8.57133 7.71856L9.1427 7.84745V8.43344L8.57133 8.30308V7.71856ZM8.57133 8.62352L9.1427 8.75388V9.31723L8.57133 9.19106V8.62352ZM8.57133 10.4295L9.1427 10.5479V11.1313L8.57133 11.0027V10.4295ZM8.57133 12.2159L9.1427 12.3415V12.9402L8.57133 12.8101V12.2159ZM8.57133 13.1303L9.1427 13.2607V13.8481L8.57133 13.7169V13.1303ZM7.71413 2.04357L8.28551 2.17707V2.81377L7.71413 2.68844V2.04357ZM7.71413 3.91578L8.28551 4.0411V4.62313L7.71413 4.49612V3.91578ZM7.71413 4.81907L8.28551 4.94608V5.51823L7.71413 5.3929V4.81907ZM7.71413 6.62689L8.28551 6.75809V7.33276L7.71413 7.20387V6.62689ZM7.71413 7.52514L8.28551 7.65403V8.23815L7.71413 8.10779V7.52514ZM7.71413 8.42822L8.28551 8.55837V9.128L7.71413 9.00183V8.42822ZM7.71413 9.32524L8.28551 9.45203V10.0454L7.71413 9.91376V9.32524ZM7.71413 10.2323L8.28551 10.3639V10.9384L7.71413 10.8095V10.2323ZM7.71413 12.028L8.28551 12.1535V12.7451L7.71413 12.615V12.028ZM7.71413 16.3503L9.1427 16.7905V18.7974H7.71413V16.3503ZM6.85694 1.84323L7.42832 1.97674V2.62604L6.85694 2.50071V1.84323ZM6.85694 2.82658L7.42832 2.9519V3.5276L6.85694 3.40227V2.82658ZM6.85694 3.72799L7.42832 3.85332V4.43261L6.85694 4.3056V3.72799ZM6.85694 5.53082L7.42832 5.65615V6.24316L6.85694 6.11197V5.53082ZM6.85694 7.33194L7.42832 7.46083V8.04307L6.85694 7.91292V7.33194ZM6.85694 10.0355L7.42832 10.1667V10.7454L6.85694 10.6163V10.0355ZM6.85694 10.9374L7.42832 11.0663V11.6401L6.85694 11.5146V10.9374ZM6.85694 12.74L7.42832 12.8704V13.4536L6.85694 13.322V12.74ZM6.85694 13.641L7.42832 13.7722V14.2884L6.85694 14.1549V13.641Z" fill="white"/>
</svg>
