<svg width="22" height="20" viewBox="0 0 22 20" fill="none" xmlns="http://www.w3.org/2000/svg">
<path d="M0 14.3064L16.7378 14.4995L21.0171 9.20605C0.288634 9.30145 0 14.3064 0 14.3064V14.3064ZM6.67014 12.7528H5.80498V11.8876H6.67014V12.7528ZM8.64232 12.7528H7.77716V11.8876H8.64232V12.7528ZM10.6145 12.7528H9.74706V11.8876H10.6145V12.7528Z" fill="white"/>
<path d="M17.7307 8.27116C16.8307 7.827 14.1306 6.36647 10.6677 6.25712C7.2048 6.14778 4.33936 10.0805 4.33936 10.0805C9.90687 8.05716 17.7307 8.27116 17.7307 8.27116Z" fill="white"/>
<path d="M9.0955 5.5275C7.78145 5.66475 6.90234 7.29739 6.90234 7.29739C8.90243 6.24842 11.8702 5.92528 11.8702 5.92528C11.5074 5.80425 10.4096 5.39041 9.09559 5.5275L9.0955 5.5275Z" fill="white"/>
</svg>
