<svg width="11" height="11" viewBox="0 0 11 11" fill="none" xmlns="http://www.w3.org/2000/svg">
<path fill-rule="evenodd" clip-rule="evenodd" d="M9.90273 6.59727H6.59727V9.90273C6.59727 10.5062 6.10351 11 5.5 11C4.89649 11 4.40273 10.5062 4.40273 9.90273V6.59727H1.09727C0.493761 6.59727 0 6.10351 0 5.5C0 4.89649 0.493761 4.40273 1.09727 4.40273H4.40273V1.09727C4.40273 0.493761 4.89649 0 5.5 0C6.10351 0 6.59727 0.493761 6.59727 1.09727V4.40273H9.90273C10.5062 4.40273 11 4.89649 11 5.5C10.9999 6.10351 10.5061 6.59727 9.90273 6.59727Z" fill="#5C58A5"/>
</svg>
