<svg width="20" height="20" viewBox="0 0 20 20" fill="none" xmlns="http://www.w3.org/2000/svg">
<path d="M8.49128 9.98438C7.30013 9.98423 6.15765 10.4573 5.3153 11.2997C4.47299 12.1418 3.99985 13.2844 4 14.4755V18.1433C7.8613 19.633 12.1387 19.633 16 18.1433V14.4755C16.0001 13.2847 15.5272 12.1424 14.6853 11.3003C13.8433 10.458 12.7014 9.98471 11.5105 9.98441L8.49128 9.98438ZM9.56194 10.7445H10.4405L10.721 11.5592H10.7211C10.7436 11.6271 10.7286 11.7019 10.6817 11.7558C10.512 11.957 10.2622 12.073 9.99901 12.073C9.73593 12.073 9.48618 11.957 9.31647 11.7558C9.26957 11.7019 9.25447 11.6271 9.27704 11.5592L9.56194 10.7445ZM9.50375 12.3073C9.8199 12.4465 10.18 12.4465 10.4961 12.3073L11.194 17.3284L10.0006 18.7562L8.8077 17.3284L9.50375 12.3073Z" fill="white"/>
<path d="M11.5341 1.50286e-05H8.46754C7.8719 -0.000131566 7.30071 0.236428 6.8795 0.657497C6.45829 1.07857 6.22172 1.64974 6.22172 2.24539V3.36517H5.38541C5.26625 3.36502 5.15193 3.41236 5.06765 3.49649C4.98338 3.58077 4.93604 3.69509 4.93604 3.81425V4.82278V4.82264C4.93604 4.9418 4.98338 5.05612 5.06765 5.14039C5.15193 5.22452 5.26625 5.27186 5.38541 5.27172H14.6164C14.8641 5.27128 15.0645 5.07034 15.0645 4.82263V3.8141V3.81425C15.0645 3.56655 14.864 3.36561 14.6164 3.36516H13.78V2.24538C13.78 1.64973 13.5435 1.07854 13.1223 0.657482C12.701 0.236383 12.1299 -0.000150013 11.5342 7.13798e-08L11.5341 1.50286e-05Z" fill="white"/>
<path d="M6.53516 5.77173C6.54175 7.00508 7.20363 8.14201 8.27283 8.75687C9.34218 9.37173 10.6576 9.37173 11.727 8.75687C12.7962 8.14201 13.4581 7.00508 13.4647 5.77173H6.53516Z" fill="white"/>
</svg>
