<svg width="20" height="20" viewBox="0 0 20 20" fill="none" xmlns="http://www.w3.org/2000/svg">
<path fill-rule="evenodd" clip-rule="evenodd" d="M14.5 3.19047H10.9285V2.59524C10.9285 2.26666 10.6619 2 10.3333 2C10.0047 2 9.73808 2.26666 9.73808 2.59524V3.19047H6.16666V2.59524C6.16666 2.26666 5.9 2 5.57142 2C5.24284 2 4.97618 2.26666 4.97618 2.59524V3.19047H3.78571C3.3119 3.19047 2.85779 3.37861 2.52323 3.7137C2.18814 4.04826 2 4.50241 2 4.97618V16.8809C2 17.3547 2.18814 17.8088 2.52323 18.1434C2.85778 18.4785 3.31194 18.6666 3.78571 18.6666H16.8809C17.3547 18.6666 17.8088 18.4785 18.1434 18.1434C18.4785 17.8088 18.6666 17.3547 18.6666 16.8809V4.97618C18.6666 4.50237 18.4785 4.04826 18.1434 3.7137C17.8088 3.37862 17.3547 3.19047 16.8809 3.19047H15.6904V2.59524C15.6904 2.26666 15.4238 2 15.0952 2C14.7666 2 14.5 2.26666 14.5 2.59524V3.19047ZM6.76189 13.9047C7.09047 13.9047 7.35713 14.1714 7.35713 14.5C7.35713 14.8285 7.09047 15.0952 6.76189 15.0952C6.43332 15.0952 6.16666 14.8285 6.16666 14.5C6.16666 14.1714 6.43332 13.9047 6.76189 13.9047ZM10.3333 13.9047C10.6619 13.9047 10.9285 14.1714 10.9285 14.5C10.9285 14.8285 10.6619 15.0952 10.3333 15.0952C10.0047 15.0952 9.73808 14.8285 9.73808 14.5C9.73808 14.1714 10.0047 13.9047 10.3333 13.9047ZM13.9047 13.9047C14.2333 13.9047 14.5 14.1714 14.5 14.5C14.5 14.8285 14.2333 15.0952 13.9047 15.0952C13.5762 15.0952 13.3095 14.8285 13.3095 14.5C13.3095 14.1714 13.5762 13.9047 13.9047 13.9047ZM6.76189 10.9285C7.09047 10.9285 7.35713 11.1952 7.35713 11.5238C7.35713 11.8524 7.09047 12.119 6.76189 12.119C6.43332 12.119 6.16666 11.8524 6.16666 11.5238C6.16666 11.1952 6.43332 10.9285 6.76189 10.9285ZM10.3333 10.9285C10.6619 10.9285 10.9285 11.1952 10.9285 11.5238C10.9285 11.8524 10.6619 12.119 10.3333 12.119C10.0047 12.119 9.73808 11.8524 9.73808 11.5238C9.73808 11.1952 10.0047 10.9285 10.3333 10.9285ZM13.9047 10.9285C14.2333 10.9285 14.5 11.1952 14.5 11.5238C14.5 11.8524 14.2333 12.119 13.9047 12.119C13.5762 12.119 13.3095 11.8524 13.3095 11.5238C13.3095 11.1952 13.5762 10.9285 13.9047 10.9285ZM6.76189 7.95237C7.09047 7.95237 7.35713 8.21903 7.35713 8.5476C7.35713 8.87618 7.09047 9.14284 6.76189 9.14284C6.43332 9.14284 6.16666 8.87618 6.16666 8.5476C6.16666 8.21903 6.43332 7.95237 6.76189 7.95237ZM10.3333 7.95237C10.6619 7.95237 10.9285 8.21903 10.9285 8.5476C10.9285 8.87618 10.6619 9.14284 10.3333 9.14284C10.0047 9.14284 9.73808 8.87618 9.73808 8.5476C9.73808 8.21903 10.0047 7.95237 10.3333 7.95237ZM13.9047 7.95237C14.2333 7.95237 14.5 8.21903 14.5 8.5476C14.5 8.87618 14.2333 9.14284 13.9047 9.14284C13.5762 9.14284 13.3095 8.87618 13.3095 8.5476C13.3095 8.21903 13.5762 7.95237 13.9047 7.95237Z" fill="white"/>
</svg>
