<svg width="23" height="20" viewBox="0 0 23 20" fill="none" xmlns="http://www.w3.org/2000/svg">
<rect x="16.9824" y="8.09473" width="3.39652" height="3.39652" fill="#5C58A5"/>
<path d="M3.44828 6.93804C3.67791 5.56024 4.65033 4.42223 5.97546 3.98053L7.05436 3.62089C7.44399 3.49102 7.852 3.4248 8.2627 3.4248H10.6146H13.5865L15.0756 3.59026C16.5062 3.74921 17.7261 4.69858 18.2315 6.0463L18.4982 6.75772C18.6193 7.08053 18.6813 7.42249 18.6813 7.76725C18.6813 9.35515 17.3941 10.6424 15.8061 10.6424H6.53387C4.80141 10.6424 3.39697 9.23797 3.39697 7.5055C3.39697 7.33272 3.41125 7.16023 3.43965 6.9898L3.44828 6.93804Z" fill="#5C58A5"/>
<rect x="1.69824" y="8.09473" width="3.39652" height="3.39652" fill="#5C58A5"/>
<path d="M19.7285 6.01422C19.7285 5.91828 19.7871 5.84078 19.9026 5.78268C20.1952 5.63679 20.7652 5.67364 21.1484 5.96094C21.3129 6.08425 21.4644 6.28807 21.3975 6.49039C21.3527 6.62367 21.0885 7.05172 19.5808 7.06765C19.526 7.03379 19.4711 6.99943 19.4145 6.96242C19.3881 6.91628 19.335 6.82417 19.2588 6.69853C19.4848 6.59944 19.7285 6.39048 19.7285 6.01424L19.7285 6.01422Z" fill="#5C58A5"/>
<path d="M0.680953 6.49035C0.61357 6.28803 0.765103 6.08422 0.929582 5.96089C1.31265 5.67376 1.88342 5.63675 2.17587 5.78264C2.29105 5.84073 2.34964 5.91824 2.34964 6.01417C2.34964 6.39043 2.59346 6.59925 2.81902 6.69833C2.74334 6.82397 2.69006 6.91609 2.66367 6.96223C2.60724 6.99907 2.5523 7.03359 2.49753 7.06745C0.990146 7.05152 0.725099 6.62349 0.680953 6.49037V6.49035Z" fill="#5C58A5"/>
<path d="M2.93473 16.1628V16.7021C2.93473 16.866 2.80095 17 2.63714 17H0.53376C0.369281 17 0.23584 16.866 0.23584 16.7021V15.6885C0.516833 15.9693 0.813096 15.9962 0.835148 15.998C1.00179 16.0125 1.16842 16.0259 1.33571 16.0398C1.34301 16.0403 1.35065 16.0413 1.35779 16.0413C1.51928 16.0549 1.68094 16.0677 1.84276 16.0808C1.863 16.0818 1.88392 16.0837 1.90433 16.0857C2.05371 16.0973 2.20342 16.1086 2.35229 16.1202C2.38648 16.123 2.42101 16.1252 2.45503 16.1275C2.59047 16.1383 2.72557 16.1479 2.8605 16.1577C2.8854 16.1593 2.90963 16.1612 2.93469 16.1628L2.93473 16.1628Z" fill="#5C58A5"/>
<path d="M21.5449 17.0005H19.4415C19.277 17.0005 19.1436 16.8665 19.1436 16.7026V16.1633C19.1694 16.1615 19.1947 16.1595 19.2206 16.1578C19.3535 16.1481 19.4873 16.1383 19.6212 16.1281C19.6559 16.1253 19.6914 16.1232 19.7256 16.1203C19.8758 16.1087 20.0259 16.0974 20.1761 16.0856C20.1957 16.0842 20.2151 16.0828 20.2347 16.0813C20.5701 16.0549 20.9065 16.0274 21.2412 15.9985C21.2644 15.9967 21.5615 15.9698 21.8422 15.6885V16.7026C21.8427 16.8664 21.7094 17.0005 21.5449 17.0005L21.5449 17.0005Z" fill="#5C58A5"/>
<path d="M21.9405 9.5712C21.8643 8.47329 21.502 8.31446 20.7078 7.96656C20.3747 7.821 19.9721 7.64341 19.5015 7.35859H19.4972V7.35626C19.4089 7.30249 19.3188 7.24639 19.2252 7.18464L19.1959 7.16506L19.1793 7.13435C19.1682 7.11527 18.0924 5.20892 16.845 4.05789C15.6991 3 12.5961 3 11.5759 3L11.039 3.00149L10.5012 3C9.48148 3 6.37829 3 5.23215 4.05789C3.98472 5.20909 2.90919 7.11545 2.8984 7.13435L2.88097 7.16506L2.85176 7.18464C2.75832 7.24622 2.66836 7.30248 2.57957 7.35626V7.35859H2.57575C2.10488 7.64339 1.70222 7.82082 1.36944 7.96656C0.575407 8.31411 0.213103 8.47346 0.136283 9.5712C0.0101411 11.375 -0.0218915 12.5725 0.0134636 14.1464C0.0234222 14.5907 0.101926 14.9071 0.206989 15.1348L0.220266 15.1622C0.432546 15.5975 0.742244 15.6878 0.833043 15.7049C0.834703 15.7049 0.836695 15.7059 0.838023 15.7059C0.842504 15.7064 0.846321 15.7074 0.849641 15.7077C0.851965 15.7082 0.85462 15.7087 0.855782 15.7087H0.858437C1.0274 15.7232 1.19985 15.7379 1.37447 15.752C1.40019 15.7544 1.42608 15.7569 1.45198 15.7585C1.59886 15.7701 1.74757 15.7822 1.89794 15.7937C1.93595 15.797 1.97379 15.7997 2.01196 15.803C2.1542 15.8138 2.29777 15.8249 2.44268 15.8355C2.48102 15.8388 2.51936 15.8415 2.55753 15.8448C2.71902 15.8564 2.882 15.8685 3.04649 15.8805C3.07272 15.882 3.09877 15.8843 3.125 15.886L3.12981 15.8865C7.18454 16.1768 10.8773 16.3114 11.0387 16.3172C11.2017 16.3117 14.963 16.1744 19.0624 15.878C19.2121 15.8672 19.3608 15.8566 19.508 15.8455C19.5558 15.8417 19.6036 15.8382 19.6519 15.8347C19.7853 15.8244 19.9171 15.8143 20.0479 15.8045C20.0952 15.8007 20.1427 15.7972 20.1911 15.7934C20.3277 15.7823 20.4631 15.7715 20.5968 15.7603C20.6348 15.7575 20.6729 15.7549 20.7108 15.7515C20.8824 15.7371 21.0525 15.7232 21.2183 15.7087C21.2198 15.7087 21.2243 15.7082 21.2286 15.7072C21.2309 15.7072 21.2341 15.7062 21.2379 15.7057C21.2407 15.7057 21.2439 15.7047 21.2467 15.7042C21.3401 15.6857 21.6472 15.594 21.857 15.162L21.8701 15.1346C21.975 14.9074 22.054 14.5904 22.0638 14.1462C22.0995 12.572 22.0671 11.3742 21.9405 9.57144L21.9405 9.5712ZM6.26587 3.90274C8.28325 3.54573 11.0391 3.4473 11.0391 3.4473C11.0391 3.4473 13.7947 3.54589 15.8119 3.90274C15.8119 3.90274 17.2396 4.94818 18.531 7.06401C18.531 7.06401 13.9792 6.84277 11.0389 6.84277C8.09872 6.84277 3.54682 7.06401 3.54682 7.06401C4.83857 4.94818 6.26561 3.90274 6.26561 3.90274H6.26587ZM14.8648 7.66039C14.8648 7.66039 14.7468 7.74121 14.5581 7.90337C14.4641 7.98387 14.3523 8.08494 14.2323 8.20777C14.1699 8.26718 14.1095 8.33573 14.0474 8.40843C13.982 8.47863 13.9206 8.55814 13.8577 8.64129C13.7289 8.80527 13.6021 9.00743 13.4203 9.19102C13.2399 9.37425 13.0034 9.53889 12.7354 9.63001C12.2009 9.82354 11.6131 9.84495 11.0391 9.85374C10.7528 9.84926 10.4622 9.84229 10.1764 9.81158C9.8909 9.78204 9.60843 9.72661 9.3427 9.63051C9.07499 9.53906 8.83747 9.37475 8.65723 9.19134C8.47665 9.00861 8.34786 8.80496 8.22103 8.64264C8.15631 8.5575 8.09357 8.47584 8.0295 8.40779C7.96793 8.33609 7.90784 8.26804 7.84577 8.20862C7.7261 8.08531 7.61424 7.98473 7.51997 7.90406C7.33159 7.74224 7.21324 7.66107 7.21324 7.66107C7.21324 7.66107 7.3437 7.72099 7.55465 7.85792C7.65938 7.92696 7.78635 8.01327 7.92079 8.12679C7.99033 8.18073 8.05971 8.2443 8.13274 8.31334C8.20909 8.38023 8.27697 8.45724 8.34883 8.53608C8.49904 8.6989 8.6348 8.87848 8.80759 9.03618C8.98086 9.1902 9.18617 9.31435 9.42716 9.39003C9.66649 9.46903 9.9324 9.50538 10.2041 9.53327C10.4764 9.55966 10.7559 9.56281 11.0394 9.56447C11.3207 9.56331 11.6024 9.55966 11.8746 9.53376C12.1466 9.50638 12.4118 9.46953 12.6517 9.39053C12.8925 9.31485 13.0988 9.19119 13.2712 9.03667C13.4437 8.87933 13.5813 8.69826 13.73 8.53726C13.803 8.45643 13.8727 8.37776 13.9474 8.3127C14.0194 8.24465 14.0888 8.18141 14.1585 8.12763C14.2928 8.01361 14.4193 7.92747 14.5247 7.85859C14.7346 7.7205 14.8647 7.66042 14.8647 7.66042L14.8648 7.66039ZM2.359 10.5207C1.8284 10.016 2.1522 8.44809 2.1522 8.44809C2.1522 8.44809 3.34686 9.1676 4.44112 10.3342C5.53522 11.5008 2.8893 11.0253 2.35899 10.5208L2.359 10.5207ZM16.2589 13.6203C14.9683 14.0525 11.956 14.5717 11.0391 14.5717C10.1222 14.5717 7.10983 14.0525 5.81931 13.6203C5.31658 13.4525 4.78164 13.1078 4.47325 12.8349C4.61798 12.8299 4.81134 12.8349 5.02162 12.8515C7.94108 13.083 10.993 13.1567 11.024 13.1572L11.0393 13.1582L11.0546 13.1572C11.0853 13.1567 14.1374 13.0827 17.057 12.8515C17.2676 12.8349 17.4603 12.8296 17.6054 12.8349C17.2965 13.1078 16.7622 13.4527 16.2593 13.6203H16.2589ZM19.7191 10.5207C19.1885 11.0251 16.5425 11.5006 17.6366 10.3342C18.7312 9.16757 19.9254 8.44806 19.9254 8.44806C19.9254 8.44806 20.2498 10.0162 19.7191 10.5207L19.7191 10.5207Z" fill="white"/>
</svg>
