<svg width="19" height="20" viewBox="0 0 19 20" fill="none" xmlns="http://www.w3.org/2000/svg">
<path d="M9.24915 4.58154L11.3803 2.38017L9.79033 2.82786C9.04308 3.04349 8.40856 3.54037 8.01993 4.2141L2.71196 13.4034C2.49051 13.787 2.43056 14.2428 2.54524 14.6708C2.65976 15.0986 2.93967 15.4634 3.32337 15.6848L8.3874 18.6111C8.2769 18.336 8.22023 18.0423 8.22038 17.7459V7.13337C8.21979 6.18149 8.58872 5.26665 9.24918 4.58139L9.24915 4.58154Z" fill="white"/>
<path d="M0.488818 12.6201L1.82497 13.9563C1.86762 13.6432 1.97335 13.3422 2.1356 13.071C2.91389 11.7349 6.35441 5.7657 8.22197 2.55893C8.01484 2.73266 8.4224 2.34852 0.505871 10.2418C0.185404 10.5535 0.00317145 10.9806 4.10257e-05 11.4275C-0.00309058 11.8746 0.173176 12.3041 0.48915 12.6202L0.488818 12.6201Z" fill="white"/>
<path d="M12.4337 10.7489C12.5826 10.7489 12.7253 10.6898 12.8306 10.5845C12.9359 10.4793 12.9949 10.3365 12.9949 10.1877C12.9949 10.0389 12.9359 9.89616 12.8306 9.79086C12.7253 9.68558 12.5826 9.62653 12.4337 9.62653C12.2849 9.62653 12.1422 9.68558 12.0369 9.79086C11.9316 9.89614 11.8726 10.0389 11.8726 10.1877C11.8735 10.3362 11.9328 10.4785 12.0379 10.5835C12.1429 10.6886 12.2852 10.748 12.4337 10.7488L12.4337 10.7489Z" fill="white"/>
<path d="M14.1494 13.4969C14.1494 13.6457 14.2085 13.7884 14.3137 13.8937C14.419 13.999 14.5617 14.0581 14.7106 14.0581C14.8594 14.0581 15.0021 13.999 15.1074 13.8937C15.2127 13.7885 15.2718 13.6457 15.2718 13.4969C15.2718 13.3481 15.2127 13.2054 15.1074 13.1001C15.0021 12.9948 14.8594 12.9357 14.7106 12.9357C14.5618 12.9357 14.419 12.9948 14.3137 13.1001C14.2085 13.2053 14.1494 13.3481 14.1494 13.4969Z" fill="white"/>
<path d="M10.556 19.4177H16.9027C17.3456 19.4177 17.7705 19.2418 18.0838 18.9286C18.397 18.6153 18.5729 18.1905 18.5729 17.7475V7.13504C18.5716 6.35869 18.2699 5.61293 17.7311 5.05399L15.8572 3.10985C15.4384 3.56571 14.927 3.92674 14.3573 4.16877C14.3023 4.32342 14.1924 4.45241 14.0483 4.53115C13.9044 4.60988 13.7363 4.63285 13.5765 4.59572C13.4166 4.55844 13.2762 4.46374 13.1816 4.32953C13.0871 4.19547 13.0453 4.03113 13.0642 3.86813C13.0832 3.70499 13.1613 3.55468 13.2841 3.44568C13.4066 3.33667 13.5652 3.27657 13.7293 3.27687C13.9166 3.27821 14.0948 3.35829 14.2204 3.49742C14.4256 3.40526 14.6214 3.29342 14.8049 3.16338C15.0152 3.00531 15.2119 2.82979 15.3928 2.63892C16.0173 1.91461 16.4249 1.02897 16.5686 0.0835097L15.9006 0C15.7662 0.786346 15.4275 1.5236 14.9184 2.13785C14.604 1.8144 14.172 1.63186 13.7209 1.63186C13.2699 1.63186 12.8378 1.81439 12.5235 2.13785L9.72756 5.05399C9.18878 5.61292 8.88708 6.35869 8.88574 7.13503V17.7475C8.88574 18.1905 9.06171 18.6153 9.37485 18.9286C9.68816 19.2418 10.113 19.4177 10.5559 19.4177L10.556 19.4177ZM15.9372 13.4986C15.9372 13.8246 15.8078 14.1373 15.5773 14.3678C15.3467 14.5984 15.034 14.7278 14.708 14.7278C14.382 14.7278 14.0693 14.5984 13.8387 14.3678C13.6082 14.1373 13.4787 13.8246 13.4787 13.4986C13.4787 13.1726 13.6082 12.8599 13.8387 12.6293C14.0693 12.3988 14.382 12.2693 14.708 12.2693C15.034 12.2693 15.3467 12.3988 15.5773 12.6293C15.8078 12.8599 15.9372 13.1725 15.9372 13.4986ZM15.0253 9.15607L15.5665 9.55691L12.009 14.5343L11.4645 14.1434L15.0253 9.15607ZM12.4266 8.94893C12.7525 8.94893 13.0652 9.07852 13.2958 9.30907C13.5264 9.53962 13.6558 9.8522 13.6558 10.1783C13.6558 10.5043 13.5264 10.817 13.2958 11.0474C13.0653 11.278 12.7526 11.4076 12.4266 11.4076C12.1005 11.4076 11.7879 11.278 11.5573 11.0474C11.3267 10.817 11.1973 10.5043 11.1973 10.1783C11.2 9.85399 11.3306 9.54396 11.5609 9.31548C11.7911 9.08717 12.1022 8.95907 12.4265 8.95907L12.4266 8.94893Z" fill="white"/>
</svg>
