<svg width="20" height="20" viewBox="0 0 20 20" fill="none" xmlns="http://www.w3.org/2000/svg">
<path d="M7.18418 8.78167C7.19833 8.78874 7.21232 8.79582 7.22647 8.80981C7.88132 9.23235 8.66306 9.47883 9.50106 9.47883C10.3391 9.47883 11.1137 9.23235 11.7756 8.81689C11.7898 8.80274 11.8109 8.79583 11.8319 8.78168C12.9868 8.02119 13.7475 6.71836 13.7475 5.23947C13.7475 2.90134 11.8461 1 9.50803 1C7.17006 1 5.26172 2.89434 5.26172 5.23263C5.26172 6.7186 6.02237 8.02143 7.18435 8.78192L7.18418 8.78167Z" fill="white"/>
<path d="M8.94274 9.97063L8.0835 16.4286L9.49904 18.309L10.9146 16.4218L10.0553 9.96375C9.87221 9.98481 9.68908 9.99896 9.49904 9.99896C9.30883 9.99896 9.12586 9.99188 8.94274 9.97066V9.97063Z" fill="white"/>
<path d="M16 13.1199C16 11.4931 15.4156 10.4509 14.169 9.84525C13.6127 9.5777 12.9155 9.40166 12.014 9.28186C11.5773 9.55648 11.0985 9.75378 10.5845 9.87337L11.4577 16.465C11.4648 16.5354 11.4506 16.6058 11.4083 16.6552L9.71819 18.9087C9.66883 18.9721 9.59149 19.0144 9.50692 19.0144C9.42235 19.0144 9.34501 18.9721 9.29565 18.9087L7.6055 16.6552C7.56321 16.5989 7.54922 16.5285 7.55614 16.465L8.42934 9.87337C7.91534 9.75359 7.43634 9.5494 6.99983 9.28186C4.20412 9.6269 3 10.7749 3 13.1199V19.6198H15.9933V13.1199H16Z" fill="white"/>
</svg>
