<svg width="20" height="19" viewBox="0 0 20 19" fill="none" xmlns="http://www.w3.org/2000/svg">
<path fill-rule="evenodd" clip-rule="evenodd" d="M0.680612 18.0358H5.44499C5.82066 18.0358 6.12562 17.7305 6.12562 17.3544V12.5843C6.12562 12.0418 6.3407 11.5219 6.72382 11.1389C7.1064 10.7553 7.62565 10.54 8.16749 10.54C8.70934 10.54 9.22859 10.7553 9.61117 11.1389C9.99429 11.5219 10.2094 12.0418 10.2094 12.5843V17.3544C10.2094 17.7305 10.5143 18.0358 10.89 18.0358H15.6544C16.03 18.0358 16.335 17.7305 16.335 17.3544V7.81423C16.335 7.60979 16.2431 7.41627 16.0852 7.28679L8.59834 1.15382C8.34789 0.948726 7.9871 0.948726 7.73666 1.15382L0.249783 7.28679C0.0918574 7.41629 0 7.60981 0 7.81423V17.3544C0 17.7305 0.304951 18.0358 0.680625 18.0358H0.680612Z" fill="white"/>
<path fill-rule="evenodd" clip-rule="evenodd" d="M13.1429 1.0633H19V10.1347L16.1419 7.81517C16.1007 7.7824 16.0423 7.7824 16.0011 7.81517L13.1429 10.1347V1.0633Z" fill="white"/>
<path d="M16.0715 3.10956L16.5326 4.02751C16.5487 4.05895 16.5787 4.08101 16.6136 4.08711L17.6273 4.26926L16.8987 4.90346C16.8703 4.92919 16.8571 4.96743 16.8635 5.00505L17.05 6.02115L16.1208 5.55869C16.0897 5.54359 16.0534 5.54359 16.0222 5.55869L15.093 6.02115L15.2795 5.00505C15.2859 4.96743 15.2727 4.92919 15.2443 4.90346L14.5157 4.26926L15.5294 4.08711C15.5643 4.08101 15.5943 4.05895 15.6104 4.02751L16.0715 3.10956Z" fill="#5C58A5"/>
<path d="M13.1429 1.0633V0.813301H12.8929V1.0633H13.1429ZM19 1.0633H19.25V0.813301H19V1.0633ZM19 10.1347L18.8425 10.3288L19.25 10.6595V10.1347H19ZM16.1419 7.81517L16.2994 7.62104L16.2976 7.61956L16.1419 7.81517ZM16.0011 7.81517L15.8454 7.61955L15.8436 7.62105L16.0011 7.81517ZM13.1429 10.1347H12.8929V10.6595L13.3005 10.3288L13.1429 10.1347ZM16.0715 3.10956L16.2949 2.99734L16.0715 2.55264L15.8481 2.99734L16.0715 3.10956ZM16.5326 4.02751L16.3092 4.13974L16.3099 4.14106L16.5326 4.02751ZM16.6136 4.08711L16.6578 3.84104L16.6566 3.84084L16.6136 4.08711ZM17.6273 4.26926L17.7915 4.45783L18.1849 4.11543L17.6715 4.0232L17.6273 4.26926ZM16.8987 4.90346L16.7345 4.71484L16.7307 4.7183L16.8987 4.90346ZM16.8635 5.00505L16.617 5.04676L16.6176 5.05019L16.8635 5.00505ZM17.05 6.02115L16.9386 6.24496L17.3861 6.46769L17.2959 5.97601L17.05 6.02115ZM16.1208 5.55869L16.2322 5.33486L16.2299 5.33376L16.1208 5.55869ZM16.0222 5.55869L15.9131 5.33375L15.9109 5.33487L16.0222 5.55869ZM15.093 6.02115L14.8471 5.97601L14.7569 6.46769L15.2044 6.24496L15.093 6.02115ZM15.2795 5.00505L15.5254 5.05019L15.526 5.04675L15.2795 5.00505ZM15.2443 4.90346L15.4123 4.71826L15.4085 4.71488L15.2443 4.90346ZM14.5157 4.26926L14.4715 4.0232L13.9581 4.11543L14.3515 4.45783L14.5157 4.26926ZM15.5294 4.08711L15.4864 3.84084L15.4852 3.84105L15.5294 4.08711ZM15.6104 4.02751L15.8331 4.14105L15.8338 4.13974L15.6104 4.02751ZM13.1429 1.3133H19V0.813301H13.1429V1.3133ZM18.75 1.0633V10.1347H19.25V1.0633H18.75ZM19.1576 9.94054L16.2994 7.62105L15.9844 8.00929L18.8425 10.3288L19.1576 9.94054ZM16.2976 7.61956C16.1653 7.51427 15.9777 7.51427 15.8454 7.61956L16.1568 8.01077C16.1068 8.05053 16.0362 8.05053 15.9862 8.01077L16.2976 7.61956ZM15.8436 7.62105L12.9854 9.94054L13.3005 10.3288L16.1586 8.00929L15.8436 7.62105ZM13.3929 10.1347V1.0633H12.8929V10.1347H13.3929ZM15.8481 3.22179L16.3092 4.13973L16.756 3.91529L16.2949 2.99734L15.8481 3.22179ZM16.3099 4.14106C16.3619 4.2431 16.4588 4.31384 16.5705 4.33337L16.6566 3.84084C16.6985 3.84817 16.7354 3.8748 16.7554 3.91396L16.3099 4.14106ZM16.5694 4.33317L17.5831 4.51532L17.6715 4.0232L16.6578 3.84105L16.5694 4.33317ZM17.4632 4.08068L16.7345 4.71488L17.0628 5.09204L17.7915 4.45783L17.4632 4.08068ZM16.7307 4.7183C16.6392 4.80132 16.5964 4.92508 16.617 5.04675L17.11 4.96335C17.1178 5.00979 17.1014 5.05706 17.0666 5.08862L16.7307 4.7183ZM16.6176 5.05019L16.8041 6.06628L17.2959 5.97601L17.1094 4.95991L16.6176 5.05019ZM17.1614 5.79733L16.2322 5.33487L16.0094 5.7825L16.9386 6.24496L17.1614 5.79733ZM16.2299 5.33376C16.1299 5.28524 16.0131 5.28523 15.9131 5.33376L16.1314 5.78361C16.0936 5.80195 16.0494 5.80195 16.0116 5.78362L16.2299 5.33376ZM15.9109 5.33487L14.9816 5.79733L15.2044 6.24496L16.1336 5.7825L15.9109 5.33487ZM15.3389 6.06628L15.5254 5.05019L15.0336 4.95991L14.8471 5.97601L15.3389 6.06628ZM15.526 5.04675C15.5466 4.92508 15.5038 4.80132 15.4123 4.71829L15.0764 5.08862C15.0416 5.05706 15.0252 5.00979 15.033 4.96335L15.526 5.04675ZM15.4085 4.71488L14.6798 4.08068L14.3515 4.45783L15.0802 5.09204L15.4085 4.71488ZM14.5599 4.51532L15.5737 4.33317L15.4852 3.84105L14.4715 4.0232L14.5599 4.51532ZM15.5725 4.33337C15.6842 4.31384 15.7811 4.2431 15.8331 4.14104L15.3876 3.91398C15.4076 3.8748 15.4445 3.84817 15.4864 3.84084L15.5725 4.33337ZM15.8338 4.13974L16.2949 3.22179L15.8481 2.99734L15.387 3.91529L15.8338 4.13974Z" fill="#5C58A5"/>
</svg>
