<svg width="9" height="9" viewBox="0 0 9 9" fill="none" xmlns="http://www.w3.org/2000/svg">
<path fill-rule="evenodd" clip-rule="evenodd" d="M8.10223 5.39777H5.39777V8.10223C5.39777 8.59601 4.99378 9 4.5 9C4.00622 9 3.60223 8.59601 3.60223 8.10223V5.39777H0.897768C0.403987 5.39777 0 4.99378 0 4.5C0 4.00622 0.403987 3.60223 0.897768 3.60223H3.60223V0.897768C3.60223 0.403986 4.00622 0 4.5 0C4.99378 0 5.39777 0.403986 5.39777 0.897768V3.60223H8.10223C8.59601 3.60223 9 4.00622 9 4.5C8.99992 4.99378 8.59593 5.39777 8.10223 5.39777Z" fill="#4A4A4A"/>
</svg>
