<svg width="20" height="20" viewBox="0 0 20 20" fill="none" xmlns="http://www.w3.org/2000/svg">
<path d="M20 8.25764L17.5686 7.75977L18.1974 8.80769L8.56 14.1673L4.79143 12.5654L0 15.0706L0.402457 15.7732L4.82903 13.4607L8.61017 15.0706L18.6122 9.50222L19.2283 10.5219L20 8.25764Z" fill="white"/>
<path d="M6.13298 10.7751C5.82773 10.1243 5.28733 9.60113 4.61121 9.30172C5.11801 8.98373 5.4563 8.47141 5.53901 7.89657C5.62171 7.32184 5.44069 6.74092 5.0427 6.30363C4.64458 5.86626 4.06847 5.61518 3.46267 5.61518C2.85687 5.61518 2.28064 5.86625 1.88264 6.30363C1.48453 6.74089 1.3035 7.32184 1.38621 7.89657C1.46902 8.47141 1.8073 8.98371 2.31401 9.30172C1.75798 9.55686 1.29013 9.95961 0.966126 10.4621C0.642126 10.9645 0.475612 11.5456 0.486326 12.136V13.8423L4.80833 11.4656L6.21255 12.0679L8.51813 13.0113L11.6578 11.309L11.9178 11.1444L16.8518 8.47066C16.5621 8.13535 16.1966 7.8676 15.7828 7.68772C16.2903 7.37025 16.6292 6.85796 16.7125 6.28301C16.7957 5.70806 16.6149 5.1267 16.2169 4.689C15.8188 4.2513 15.2424 4 14.6364 4C14.0302 4 13.4538 4.25129 13.0558 4.689C12.6577 5.1267 12.477 5.70806 12.5601 6.28301C12.6434 6.85796 12.9825 7.37025 13.4898 7.68772C12.5391 8.13193 11.882 9.0006 11.7376 10.0043C11.4788 9.32362 10.9392 8.77485 10.2452 8.48669C10.7488 8.16657 11.0835 7.65393 11.1636 7.08029C11.2438 6.50662 11.0614 5.92773 10.6634 5.49227C10.2654 5.05671 9.69052 4.8068 9.08617 4.8068C8.48183 4.8068 7.90695 5.0567 7.50883 5.49227C7.11083 5.92773 6.92857 6.50662 7.0086 7.08029C7.08874 7.65395 7.42355 8.16657 7.92703 8.48669C6.9778 8.91703 6.31229 9.76934 6.14969 10.7631" fill="white"/>
</svg>
