<svg width="20" height="20" viewBox="0 0 20 20" fill="none" xmlns="http://www.w3.org/2000/svg">
<path d="M14.4107 11.8799L12.247 11.3663L11.859 10.8228C12.5672 10.3888 12.8897 9.78372 12.9956 9.54044C13.5621 9.11037 13.8568 8.65616 13.8724 8.18947C13.8827 7.88092 13.7689 7.64213 13.6595 7.48595C13.8983 6.98456 14.3957 5.67854 13.9975 4.1469C13.9779 4.0844 13.7911 3.52992 13.2516 3.29524C12.9612 3.1689 12.6376 3.16358 12.2871 3.27832C11.8607 2.72577 10.6125 1.50792 8.27305 2.21473C8.20474 2.23927 6.59297 2.83388 6.0356 4.33395C5.70565 5.22222 5.81749 6.22211 6.36761 7.30965C6.2449 7.42354 6.1223 7.59112 6.07321 7.82725C5.97153 8.31523 6.23812 8.88551 6.86563 9.52305C6.969 9.73318 7.3438 10.392 8.14687 10.8469L7.77 11.3665L5.59192 11.8819C3.47707 12.3822 2 14.2495 2 16.4228V17.9951H17.9994V16.4205C17.9994 14.2487 16.5235 12.3816 14.4106 11.8799L14.4107 11.8799ZM7.45032 9.19948L7.42481 9.13879L7.37826 9.09236C6.72005 8.43755 6.70204 8.08802 6.72479 7.96808C6.7555 7.8068 6.91086 7.73292 6.92791 7.7253L7.28239 7.58699L7.0933 7.25234C6.85379 6.82846 6.69359 6.42501 6.60377 6.04136C7.52009 5.90148 8.18907 6.19032 8.19536 6.19298L8.72478 6.43382L8.59372 5.16855C10.4826 5.35632 11.0419 6.21898 11.0457 6.22465L11.3809 6.79725L11.8041 5.7999C12.7068 6.32366 13.0557 6.74222 13.1744 6.92031C13.069 7.1944 12.9759 7.35812 12.9733 7.36245L12.8366 7.60329L13.0434 7.78586C13.0504 7.79226 13.2173 7.94255 13.206 8.17433C13.1929 8.44032 12.9579 8.74597 12.5261 9.05861L12.441 9.1216L12.4065 9.22002C12.3862 9.27781 11.8862 10.6381 10.0002 10.6381C8.0951 10.6382 7.47511 9.25676 7.45032 9.19947L7.45032 9.19948ZM7.24757 14.6287L8.25931 13.7446L7.44018 12.9561L8.43994 11.5783L9.18339 16.6608L7.24757 14.6287ZM9.95474 17.3284L9.05764 11.1972C9.33995 11.2634 9.65104 11.3052 10.0001 11.3052C10.3571 11.3052 10.6722 11.2626 10.9545 11.1936L10.0457 17.3284L9.95474 17.3284ZM10.8171 16.6705L11.5728 11.5691L12.5625 12.956L11.7523 13.746L12.7623 14.6286L10.8171 16.6705Z" fill="white"/>
<path d="M14.3155 15.2534L14.499 15.818H15.0926L14.6123 16.1669L14.7958 16.7314L14.3155 16.3825L13.8353 16.7314L14.0188 16.1669L13.5385 15.818H14.1321L14.3155 15.2534Z" fill="white"/>
</svg>
