<svg width="19" height="20" viewBox="0 0 19 20" fill="none" xmlns="http://www.w3.org/2000/svg">
<path d="M9.20239 0.849609C4.12833 0.849609 0 4.97794 0 10.052C0 15.1261 4.12833 19.2544 9.20239 19.2544C14.2765 19.2544 18.4048 15.1261 18.4048 10.052C18.4048 4.97794 14.2765 0.849609 9.20239 0.849609ZM9.20239 2.26536C13.5105 2.26536 16.989 5.74387 16.989 10.052C16.989 14.3601 13.5105 17.8386 9.20239 17.8386C4.89426 17.8386 1.41575 14.3601 1.41575 10.052C1.41575 5.74387 4.89426 2.26536 9.20239 2.26536ZM9.20239 4.38899C7.25573 4.38899 5.66301 5.98171 5.66301 7.92837C5.66301 9.00151 6.16348 9.95502 6.92374 10.6049C6.11712 11.023 5.44089 11.6548 4.96888 12.4311C4.49688 13.2075 4.24726 14.0986 4.24726 15.0071H5.66301C5.66301 13.0442 7.23945 11.4678 9.20239 11.4678C11.1653 11.4678 12.7418 13.0442 12.7418 15.0071H14.1575C14.1575 13.0959 13.0738 11.4324 11.481 10.6049C12.2413 9.95502 12.7418 9.00151 12.7418 7.92837C12.7418 5.98171 11.1491 4.38899 9.20239 4.38899ZM9.20239 5.80474C10.3831 5.80474 11.326 6.74763 11.326 7.92837C11.326 9.10911 10.3831 10.052 9.20239 10.052C8.02165 10.052 7.07876 9.10911 7.07876 7.92837C7.07876 6.74763 8.02165 5.80474 9.20239 5.80474Z" fill="#6D6D6D"/>
</svg>
