<svg width="6" height="26" viewBox="0 0 6 26" fill="none" xmlns="http://www.w3.org/2000/svg">
<path d="M5.66699 2.83333C5.66699 1.275 4.39199 0 2.83366 0C1.27532 0 0.000324249 1.275 0.000324249 2.83333C0.000324249 4.39167 1.27532 5.66667 2.83366 5.66667C4.39199 5.66667 5.66699 4.39167 5.66699 2.83333ZM5.66699 22.6667C5.66699 21.1083 4.39199 19.8333 2.83366 19.8333C1.27532 19.8333 0.000324249 21.1083 0.000324249 22.6667C0.000324249 24.225 1.27532 25.5 2.83366 25.5C4.39199 25.5 5.66699 24.225 5.66699 22.6667ZM5.66699 12.75C5.66699 11.1917 4.39199 9.91667 2.83366 9.91667C1.27532 9.91667 0.000324249 11.1917 0.000324249 12.75C0.000324249 14.3083 1.27532 15.5833 2.83366 15.5833C4.39199 15.5833 5.66699 14.3083 5.66699 12.75Z" fill="#5C58A5"/>
</svg>
