<svg width="52" height="32" viewBox="0 0 52 32" fill="none" xmlns="http://www.w3.org/2000/svg">
<path fill-rule="evenodd" clip-rule="evenodd" d="M0.890869 0.0849609V31.9954H51.8909V0.0849609H0.890869Z" fill="#1D5B99"/>
<path fill-rule="evenodd" clip-rule="evenodd" d="M51.2945 0.680908V31.3998H1.48708V0.680908H51.2945Z" fill="white"/>
<path fill-rule="evenodd" clip-rule="evenodd" d="M49.7073 30.0617V2.17126H2.97321V30.0617H49.7073Z" fill="#1D5B99"/>
<path fill-rule="evenodd" clip-rule="evenodd" d="M15.7628 19.02C20.7173 16.8962 27.6702 14.9716 36.8772 16.8989L36.974 14.5638C27.2594 13.5028 20.2887 16.5968 15.7628 18.7894V19.02Z" fill="#E7A83A"/>
<path fill-rule="evenodd" clip-rule="evenodd" d="M6.81744 20.737H11.4868V22.1439H8.58552L8.56617 23.4428H11.4574V24.7911H8.55635L8.56671 26.09H11.4282V27.4966H6.81908L6.81744 20.737ZM12.6595 20.17H14.3592L14.3652 27.4966H12.6655L12.6595 20.17ZM20.2061 26.9397C19.6299 27.4279 18.7507 27.6725 17.9689 27.6725C16.1815 27.6725 15.3705 26.4027 15.3705 25.1425C15.3705 23.6576 16.4841 22.398 18.0177 22.398C19.8932 22.398 20.4793 23.7263 20.4793 25.4162H17.0704C17.0704 25.7973 17.3147 26.4417 18.2524 26.4417C18.8483 26.4417 19.1804 26.2659 19.6397 25.9535L20.2061 26.9397ZM18.9557 24.4198C18.9557 23.912 18.7115 23.4524 18.145 23.4524C17.6077 23.4524 17.1975 23.931 17.0901 24.4198H18.9557ZM25.6377 27.1646C25.1688 27.4574 24.3971 27.6725 23.8303 27.6725C22.2675 27.6725 21.1442 26.7737 21.1442 25.1526C21.1442 23.4919 22.2577 22.398 23.938 22.398C24.5241 22.398 25.2274 22.5833 25.6082 22.8276L25.0614 23.9409C24.8073 23.8337 24.5337 23.7454 24.2602 23.7454C23.4105 23.7454 22.8438 24.2538 22.8438 25.0642C22.8438 25.7681 23.3909 26.3245 24.1138 26.3245C24.4361 26.3245 24.7585 26.1781 25.032 26.0412L25.6377 27.1646ZM26.2657 22.5735H27.0337L27.0279 20.9027H28.669L28.63 22.5735H30.0271L29.9974 23.8046H28.6008C28.6008 24.4882 28.5518 25.2112 28.5518 25.6313C28.5518 26.0609 28.6594 26.2659 29.0405 26.2659C29.2747 26.2659 29.4701 26.1486 29.6656 26.0317L30.0366 27.1845C29.5383 27.4874 28.9329 27.6727 28.3563 27.6727C26.9789 27.6727 26.9107 26.8034 26.9107 25.6702C26.9107 25.0642 26.9592 24.4591 26.9592 23.8046H26.2268L26.2657 22.5735ZM30.8964 22.5735H32.5963V23.2673H32.6154C32.8695 22.8472 33.2015 22.4367 33.8661 22.4367C34.0514 22.4367 34.2466 22.4563 34.423 22.4953L34.1984 24.1756C34.0324 24.1265 33.8464 24.0777 33.5924 24.0777C33.0259 24.0777 32.5862 24.5564 32.5862 24.6543L32.5571 27.4969H30.8577L30.8964 22.5735ZM37.5023 22.3977C39.3189 22.3977 40.2569 23.5505 40.2569 25.0348C40.2569 26.5196 39.3189 27.6725 37.5023 27.6725C35.6851 27.6725 34.7471 26.5196 34.7471 25.0348C34.7468 23.5505 35.6851 22.3977 37.5023 22.3977ZM37.5023 26.3828C38.3127 26.3828 38.557 25.6795 38.557 25.0348C38.557 24.3901 38.3127 23.6873 37.5023 23.6873C36.6913 23.6873 36.447 24.3901 36.447 25.0348C36.447 25.6795 36.6913 26.3828 37.5023 26.3828ZM41.1807 22.5735H42.8801V23.1108C43.271 22.7303 43.8666 22.398 44.4726 22.398C45.5178 22.398 46.0842 22.974 46.0842 24.3222C46.0842 25.3284 46.0747 26.4125 46.0652 27.4969H44.3652C44.3748 26.5491 44.3849 25.592 44.3849 24.576C44.3849 24.1756 44.2772 23.8632 43.7693 23.8632C43.4956 23.8632 43.1047 24.0973 42.8801 24.3124L42.8711 27.4969H41.1412L41.1807 22.5735ZM20.7988 12.432L22.9469 5.35179H24.8627L22.7149 12.432H20.7988ZM19.9425 5.35343L18.2189 8.35474C17.7803 9.14146 17.5235 9.53837 17.4003 10.035H17.3744C17.4046 9.40534 17.3169 8.63252 17.3087 8.19527L17.1184 5.35343H13.893L13.8595 5.54425C14.6882 5.54425 15.1797 5.96023 15.3152 6.81183L15.9438 12.432H17.9289L21.9426 5.35343H19.9425ZM34.8428 12.432L34.7902 11.3792L32.3981 11.3776L31.9088 12.4323H29.8286L33.5997 5.36542H36.1532L36.7922 12.4323H34.8428V12.432ZM34.6234 8.25579C34.6016 7.7324 34.5838 7.02228 34.6195 6.59212H34.5912C34.4745 6.94404 33.9735 7.999 33.7532 8.5183L33.0404 10.0699H34.7207L34.6234 8.25579ZM26.8739 12.6337C25.5215 12.6337 24.6236 12.2044 23.9827 11.8217L24.8951 10.4281C25.4706 10.7501 25.9225 11.1211 26.9617 11.1211C27.2967 11.1211 27.6181 11.0344 27.8008 10.7176C28.0676 10.2569 27.7394 10.0094 26.9914 9.58553L26.622 9.3451C25.5123 8.587 25.032 7.86734 25.5543 6.61011C25.889 5.80622 26.7701 5.19641 28.2246 5.19641C29.2273 5.19641 30.168 5.63012 30.7154 6.05401L29.6664 7.28452C29.1313 6.85218 28.6883 6.63355 28.181 6.63355C27.777 6.63355 27.4698 6.78948 27.3638 6.99993C27.1642 7.39574 27.4281 7.66452 28.0112 8.02708L28.4509 8.30677C29.7978 9.15591 30.1184 10.0468 29.7815 10.8798C29.2003 12.3132 28.0635 12.6337 26.8739 12.6337Z" fill="white"/>
</svg>
