<svg width="52" height="32" viewBox="0 0 52 32" fill="none" xmlns="http://www.w3.org/2000/svg">
<path fill-rule="evenodd" clip-rule="evenodd" d="M0.890869 0H51.8909V32H0.890869V0Z" fill="white"/>
<path fill-rule="evenodd" clip-rule="evenodd" d="M26.1163 26.3763C27.5586 25.0605 28.7101 23.4577 29.4967 21.6708C30.2834 19.8839 30.688 17.9523 30.6844 15.9999C30.688 14.0475 30.2835 12.1159 29.4968 10.3289C28.7101 8.54202 27.5587 6.93925 26.1163 5.62343C23.6498 3.37201 20.378 2 16.7876 2C9.11292 2 2.89098 8.26788 2.89098 15.9999C2.89098 23.7316 9.11292 29.9998 16.7876 29.9998C20.378 29.9998 23.6501 28.6277 26.1163 26.3763Z" fill="#3A9BD9"/>
<path fill-rule="evenodd" clip-rule="evenodd" d="M35.445 2C31.8546 2 28.5823 3.37201 26.1163 5.62343C25.6134 6.08294 25.1445 6.57832 24.7133 7.10567H27.5184C27.9035 7.57636 28.2576 8.07157 28.5785 8.58816H23.6539C23.3574 9.06587 23.0899 9.56092 22.8527 10.0707H29.3785C29.6031 10.5531 29.8 11.048 29.9682 11.5529H22.2642C22.1027 12.0392 21.968 12.534 21.8608 13.0351H30.3719C30.5802 14.0096 30.6851 15.0034 30.6847 15.9999C30.6847 17.5541 30.4325 19.0495 29.9684 20.4466H22.2642C22.4318 20.9516 22.6283 21.4466 22.8527 21.9291H29.3785C29.1417 22.4389 28.8745 22.9339 28.5783 23.4116H23.6539C23.9745 23.9282 24.3283 24.4234 24.713 24.8941H27.5184C27.0877 25.4217 26.6191 25.9172 26.1163 26.3766C28.5823 28.628 31.8546 30 35.445 30C43.1194 30 49.3416 23.7319 49.3416 16.0001C49.3416 8.26788 43.1194 2 35.445 2Z" fill="#CC2131"/>
<path fill-rule="evenodd" clip-rule="evenodd" d="M47.4911 23.8041C47.4911 23.5543 47.6919 23.3517 47.9402 23.3517C48.188 23.3517 48.3889 23.5543 48.3889 23.8041C48.3889 24.0533 48.188 24.2559 47.9402 24.2559C47.8207 24.2555 47.7063 24.2077 47.6221 24.123C47.5379 24.0382 47.4907 23.9235 47.4911 23.8041ZM47.94 24.1472C48.1282 24.1472 48.2809 23.994 48.2809 23.8038C48.2809 23.6136 48.1282 23.4599 47.94 23.4599C47.7513 23.4599 47.5986 23.6136 47.5986 23.8038C47.5986 23.994 47.7515 24.1472 47.94 24.1472ZM47.8794 24.0022H47.7873V23.6044H47.9541C47.9886 23.6044 48.0239 23.6054 48.0544 23.6248C48.0703 23.636 48.0832 23.6509 48.0919 23.6682C48.1007 23.6855 48.1051 23.7047 48.1048 23.7241C48.1048 23.7688 48.0788 23.811 48.0366 23.8269L48.1093 24.0019H48.007L47.9469 23.8448H47.8796V24.0022V23.7772H47.9305C47.9489 23.7772 47.9698 23.7782 47.9864 23.769C47.9938 23.764 47.9998 23.7571 48.0039 23.7492C48.0079 23.7412 48.01 23.7323 48.0097 23.7234C48.0094 23.7154 48.0073 23.7076 48.0034 23.7006C47.9995 23.6936 47.994 23.6876 47.9874 23.6831C47.9715 23.6735 47.9457 23.6759 47.9283 23.6759H47.8799V24.0022H47.8794Z" fill="#CC2131"/>
<path fill-rule="evenodd" clip-rule="evenodd" d="M44.5527 19.0338C44.5527 18.7841 44.7536 18.5815 45.0014 18.5815C45.2492 18.5815 45.45 18.7841 45.45 19.0338C45.45 19.2836 45.2492 19.4857 45.0014 19.4857C44.7536 19.4857 44.5527 19.2834 44.5527 19.0338ZM45.0011 19.377C45.1893 19.377 45.342 19.2233 45.342 19.0336C45.342 18.8434 45.1893 18.6897 45.0011 18.6897C44.8124 18.6897 44.6602 18.8434 44.6602 19.0336C44.6602 19.2233 44.8127 19.377 45.0011 19.377ZM44.9406 19.232H44.8484V18.8347H45.0153C45.0498 18.8347 45.0855 18.8352 45.1156 18.8551C45.1314 18.8662 45.1443 18.881 45.1531 18.8982C45.1619 18.9154 45.1663 18.9345 45.166 18.9539C45.166 18.9991 45.1402 19.0408 45.0977 19.0567L45.1705 19.2317H45.0687L45.0081 19.0745H44.9408V19.232V19.007H44.9917C45.0106 19.007 45.0314 19.0085 45.0476 18.9993C45.0549 18.9942 45.0608 18.9873 45.0649 18.9794C45.0689 18.9714 45.071 18.9626 45.0709 18.9536C45.0707 18.9455 45.0686 18.9376 45.0647 18.9305C45.0608 18.9234 45.0553 18.9174 45.0486 18.9129C45.0327 18.9037 45.0068 18.9057 44.99 18.9057H44.941V19.232H44.9406ZM15.0519 19.4857H13.3223L14.3502 14.0295L11.9836 19.4857H10.4065L10.1183 14.0607L9.08714 19.4857H7.51726L8.85873 12.3881H11.5575L11.7003 16.7822L13.6031 12.3881H16.4154L15.0519 19.4857ZM34.3809 19.4149C33.9076 19.5458 33.5377 19.6021 33.138 19.6021C32.2531 19.6021 31.7699 19.155 31.7699 18.3347C31.7699 18.1723 31.7878 17.9995 31.8208 17.8167L31.9261 17.2524L32.007 16.7956L32.8087 12.3878H34.5288L34.2796 13.7134H35.1622L34.9251 15.1167H34.0387L33.5829 17.525C33.566 17.6037 33.5561 17.6837 33.5533 17.7641C33.5533 18.0623 33.7324 18.1919 34.1435 18.1919C34.3404 18.1919 34.4931 18.174 34.61 18.138L34.3809 19.4149ZM39.4324 13.7608C39.2874 13.7032 39.2534 13.7032 39.2365 13.6985C39.1449 13.6781 39.096 13.6662 39.0876 13.6647C39.0301 13.6547 38.9718 13.6499 38.9135 13.6503C38.3457 13.6503 37.9363 13.9051 37.4069 14.5876L37.5596 13.7129H35.9932L34.939 19.4855H36.6698C37.289 15.9551 37.5542 15.3369 38.3844 15.3369C38.447 15.3369 38.5192 15.3419 38.6032 15.3516L38.8053 15.393L39.4324 13.7608ZM27.5246 15.537C27.5246 16.2662 27.9325 16.7685 28.8571 17.1459C29.5657 17.4359 29.6752 17.5208 29.6752 17.783C29.6752 18.1422 29.3628 18.3044 28.6709 18.3044C28.1485 18.3044 27.6631 18.2336 27.1027 18.076L26.8626 19.4075L26.9401 19.4207L27.2606 19.4797C27.3639 19.4976 27.5161 19.5148 27.718 19.5301C28.1341 19.5627 28.4561 19.5781 28.683 19.5781C30.5293 19.5781 31.3821 18.9685 31.3821 17.6519C31.3821 16.8596 31.0256 16.3951 30.1489 16.0453C29.4152 15.753 29.3303 15.6882 29.3303 15.4188C29.3303 15.1077 29.6213 14.9479 30.1866 14.9479C30.5305 14.9479 30.9993 14.9804 31.4439 15.0345L31.6932 13.6982C31.2404 13.6362 30.5531 13.5853 30.1536 13.5853C28.1962 13.5855 27.5186 14.4724 27.5246 15.537ZM20.6745 19.4857H19.2372L19.2707 18.8873C18.833 19.3611 18.2495 19.5855 17.4565 19.5855C16.5192 19.5855 15.8759 18.9425 15.8759 18.0089C15.8759 16.6027 16.9934 15.7831 18.9141 15.7831C19.111 15.7831 19.3611 15.7987 19.6188 15.8275C19.6724 15.6378 19.687 15.5559 19.687 15.4526C19.687 15.0705 19.3854 14.9275 18.5777 14.9275C18.0839 14.9275 17.5258 14.9901 17.1404 15.0884L16.9008 15.1497L16.7457 15.1869L16.9855 13.8892C17.8478 13.6667 18.4168 13.5825 19.0562 13.5825C20.5426 13.5825 21.3282 14.169 21.3282 15.2758C21.3282 15.5606 21.3021 15.7769 21.1877 16.4194L20.8262 18.4672L20.7653 18.8347L20.7211 19.1282L20.6916 19.329L20.6745 19.4857ZM19.4127 16.914C19.2845 16.898 19.1553 16.8901 19.0261 16.8902C18.0459 16.8902 17.5493 17.1854 17.5493 17.7683C17.5493 18.1276 17.7917 18.357 18.1698 18.357C18.8749 18.3573 19.3829 17.7676 19.4127 16.914ZM26.3484 19.3611C25.7708 19.5178 25.1748 19.5966 24.5762 19.5952C22.6426 19.5937 21.6348 18.7068 21.6348 17.0091C21.6348 15.0276 22.9169 13.5686 24.6574 13.5686C26.0813 13.5686 26.9905 14.3857 26.9905 15.6669C26.9905 16.0922 26.9284 16.5068 26.7782 17.092H23.3393C23.3288 17.1519 23.3232 17.2125 23.3226 17.2733C23.3226 17.9424 23.8353 18.2838 24.8399 18.2838C25.4576 18.2838 26.016 18.1708 26.636 17.9185L26.3484 19.3611ZM25.4273 15.9263C25.4368 15.8062 25.4417 15.7078 25.4417 15.6319C25.4417 15.1631 25.1386 14.888 24.6236 14.888C24.0734 14.888 23.6799 15.257 23.5203 15.9229L25.4273 15.9263ZM44.8087 16.8686C44.5498 18.7888 43.2187 19.6404 41.4492 19.6404C39.4925 19.6404 38.7022 18.4447 38.7022 16.9795C38.7022 14.9337 40.0407 13.5475 42.1079 13.5475C43.9022 13.5475 44.8549 14.6874 44.8549 16.1528C44.8549 16.5093 44.8544 16.5329 44.8087 16.8686ZM43.0275 16.1299C43.0275 15.5261 42.7842 14.956 42.0751 14.956C41.1925 14.956 40.6455 16.007 40.6455 16.9349C40.6455 17.7174 41.0204 18.2433 41.6386 18.2321C42.0136 18.2321 42.813 17.7177 42.9712 16.8192C43.0082 16.6096 43.0275 16.3797 43.0275 16.1299Z" fill="white"/>
</svg>
