<svg width="51" height="33" viewBox="0 0 51 33" fill="none" xmlns="http://www.w3.org/2000/svg">
<path fill-rule="evenodd" clip-rule="evenodd" d="M0 32.199H50.8908V0H0V32.199Z" fill="#1B3771"/>
<path fill-rule="evenodd" clip-rule="evenodd" d="M25.4866 26.3864C27.9421 28.6245 31.2441 29.9883 34.8191 29.9883C42.514 29.9883 48.7354 23.7667 48.7354 16.0714C48.7354 8.404 42.5143 2.15515 34.8191 2.15515C31.2441 2.15515 27.9424 3.51959 25.4866 5.75707C22.6758 8.32177 20.9022 11.9784 20.9022 16.0714C20.9022 20.1653 22.6758 23.8489 25.4866 26.3864Z" fill="#E9B040"/>
<path fill-rule="evenodd" clip-rule="evenodd" d="M29.9888 14.5985C29.9335 14.1033 29.8515 13.6115 29.7432 13.1251H21.2297C21.3407 12.6272 21.4773 12.1353 21.6391 11.6515H29.3341C29.1668 11.1514 28.9756 10.6596 28.761 10.1779H22.2119C22.4637 9.67533 22.7368 9.18368 23.0305 8.70432H27.9421C27.6372 8.17919 27.2808 7.68566 26.8783 7.231H24.0947C24.5041 6.71239 24.9952 6.22128 25.4863 5.75769C23.0305 3.51991 19.7558 2.15576 16.1539 2.15576C8.45891 2.15576 2.23727 8.40461 2.23727 16.0721C2.23727 23.767 8.45891 29.9889 16.1539 29.9889C19.7558 29.9889 23.0302 28.6248 25.4863 26.387C25.9771 25.9231 26.4688 25.4323 26.9052 24.9137H24.0944C23.7093 24.4453 23.3538 23.9532 23.0302 23.4404H27.9421C28.2471 22.9676 28.5207 22.4752 28.761 21.9665H22.2119C21.9882 21.4887 21.7967 20.9965 21.6388 20.4932H29.3338C29.4953 20.0092 29.632 19.5172 29.7432 19.0193C29.8524 18.5285 29.9338 18.0368 29.9888 17.546C30.098 16.5665 30.098 15.5779 29.9888 14.5985Z" fill="#CC2131"/>
<path fill-rule="evenodd" clip-rule="evenodd" d="M34.6824 12.8797L34.4362 14.4077C33.8904 14.135 33.5087 14.0258 33.0993 14.0258C31.9535 14.0258 31.1624 15.1175 31.1624 16.6727C31.1624 17.7372 31.7082 18.3916 32.5807 18.3916C32.9629 18.3916 33.3724 18.283 33.8635 18.0369L33.591 19.6472C33.0452 19.7836 32.6907 19.8383 32.2541 19.8383C30.6438 19.8383 29.6343 18.6919 29.6343 16.8091C29.6343 14.2714 31.0257 12.5253 33.0176 12.5253C33.2907 12.5253 33.509 12.5525 33.7002 12.5797L34.3274 12.7433C34.5185 12.825 34.5457 12.825 34.6824 12.8797ZM29.8527 13.9439C29.7979 13.9166 29.7435 13.9166 29.6888 13.9166C29.198 13.9166 28.9246 14.1622 28.461 14.8444L28.5974 13.9711H27.206L26.3052 19.7288H27.8063C28.3521 16.2088 28.4882 15.6083 29.2252 15.6083H29.3344C29.4707 14.9261 29.6346 14.4077 29.9074 13.9436H29.8527V13.9439ZM21.1477 19.6469C20.7383 19.7833 20.4111 19.838 20.056 19.838C19.2919 19.838 18.8555 19.4013 18.8555 18.5824C18.8555 18.4191 18.8827 18.2549 18.9099 18.0644L18.9916 17.491L19.0735 17.0544L19.7285 13.1253H21.2294L21.0658 13.9711H21.8299L21.6116 15.39H20.8477L20.4383 17.7641C20.4383 17.8733 20.4111 17.9552 20.4111 18.0097C20.4111 18.3099 20.5747 18.4463 20.9297 18.4463C21.1208 18.4463 21.23 18.4191 21.3391 18.3916L21.1477 19.6469ZM15.3355 15.7994C15.3355 16.5086 15.6902 17.0272 16.4816 17.3819C17.1091 17.6822 17.1911 17.7641 17.1911 18.0369C17.1911 18.3916 16.9183 18.5555 16.3177 18.5555C15.8811 18.5555 15.4719 18.4736 14.9805 18.3099L14.7622 19.6469H14.8441L15.1172 19.7016C15.241 19.7392 15.3698 19.7575 15.4991 19.756C15.8539 19.7833 16.1541 19.8105 16.345 19.8105C17.9277 19.8105 18.6644 19.2105 18.6644 17.9005C18.6644 17.1094 18.3644 16.6455 17.6002 16.2902C16.9725 16.0177 16.8908 15.9358 16.8908 15.6902C16.8908 15.3627 17.1363 15.1991 17.6275 15.1991C17.9277 15.1991 18.3369 15.2536 18.7188 15.3083L18.9372 13.9711C18.5552 13.9166 17.9547 13.8619 17.6002 13.8619C15.9086 13.8619 15.3355 14.7352 15.3355 15.7994ZM46.2251 19.7288H44.779L44.8604 19.1558C44.4509 19.5924 44.0142 19.783 43.4684 19.783C42.3773 19.783 41.6407 18.8555 41.6407 17.4094C41.6407 15.4991 42.7593 13.8891 44.0962 13.8891C44.6967 13.8891 45.1334 14.1347 45.5423 14.6805L45.8698 12.6611H47.3709L46.2251 19.7288ZM43.987 18.3641C44.6968 18.3641 45.1876 17.573 45.1876 16.4272C45.1876 15.7175 44.9151 15.3083 44.3965 15.3083C43.7145 15.3083 43.2229 16.0994 43.2229 17.2455C43.2229 17.9824 43.4684 18.3641 43.987 18.3641ZM25.7591 19.5924C25.2407 19.7558 24.7496 19.838 24.2038 19.838C22.5119 19.838 21.6388 18.9371 21.6388 17.2727C21.6388 15.2811 22.7577 13.8347 24.2858 13.8347C25.5138 13.8347 26.3049 14.6533 26.3049 15.9358C26.3049 16.3452 26.2505 16.7547 26.1416 17.3547H23.1399C23.1124 17.4366 23.1124 17.4638 23.1124 17.5186C23.1124 18.1736 23.5491 18.528 24.4496 18.528C24.9683 18.528 25.4594 18.4188 26.0052 18.1733L25.7591 19.5924ZM24.9135 16.1811V15.8811C24.9135 15.4172 24.6677 15.1444 24.2041 15.1444C23.7405 15.1444 23.3855 15.5263 23.2491 16.1811H24.9135ZM9.60529 19.7288H8.10446L8.97751 14.2986L7.04002 19.7288H6.00337L5.8942 14.3258L4.96643 19.7288H3.57477L4.74809 12.6611H6.90363L6.98558 17.0272L8.43196 12.6611H10.7786L9.60529 19.7288ZM13.3436 17.1636C13.1797 17.1363 13.098 17.1363 12.9889 17.1363C12.1431 17.1363 11.7064 17.4366 11.7064 18.0097C11.7064 18.3644 11.9244 18.6102 12.2519 18.6102C12.8797 18.6102 13.3164 18.0097 13.3436 17.1636ZM14.435 19.7288H13.1797L13.2072 19.1283C12.8253 19.5927 12.3339 19.8102 11.6244 19.8102C10.8058 19.8102 10.26 19.183 10.26 18.2549C10.26 16.8636 11.2153 16.0447 12.9069 16.0447C13.0705 16.0447 13.2889 16.0447 13.5072 16.0719C13.5616 15.9083 13.5616 15.8266 13.5616 15.7175C13.5616 15.3355 13.3161 15.1988 12.6067 15.1988C12.17 15.1988 11.6789 15.2533 11.3514 15.3624L11.133 15.4169L10.9967 15.4441L11.215 14.1616C11.9789 13.9433 12.47 13.8613 13.0158 13.8613C14.3255 13.8613 15.0077 14.4344 15.0077 15.5261C15.0077 15.8263 14.9802 16.0444 14.8711 16.6722L14.5711 18.7188L14.5166 19.0735L14.4891 19.3732L14.4619 19.5643L14.435 19.7288ZM37.1382 17.1636C36.9749 17.1363 36.8926 17.1363 36.7835 17.1363C35.9374 17.1363 35.5007 17.4366 35.5007 18.0097C35.5007 18.3644 35.719 18.6102 36.0465 18.6102C36.6468 18.6102 37.111 18.0097 37.1382 17.1636ZM38.2296 19.7288H36.9746L37.0018 19.1283C36.6196 19.5927 36.1015 19.8102 35.4187 19.8102C34.6004 19.8102 34.0274 19.183 34.0274 18.2549C34.0274 16.8636 35.0099 16.0447 36.7012 16.0447C36.8645 16.0447 37.0835 16.0447 37.3012 16.0719C37.3559 15.9083 37.3559 15.8266 37.3559 15.7175C37.3559 15.3355 37.1104 15.1988 36.4007 15.1988C35.964 15.1988 35.4732 15.2533 35.1457 15.3624L34.9273 15.4169L34.791 15.4441L35.0093 14.1616C35.7729 13.9433 36.2643 13.8613 36.8101 13.8613C38.1198 13.8613 38.802 14.4344 38.802 15.5261C38.802 15.8263 38.7748 16.0444 38.6656 16.6722L38.3654 18.7188L38.3109 19.0735L38.2562 19.3732L38.229 19.5643V19.7288H38.2296ZM42.2684 13.9439C42.2406 13.9166 42.1865 13.9166 42.1315 13.9166C41.6407 13.9166 41.3404 14.1622 40.8765 14.8444L41.0129 13.9711H39.6487L38.7207 19.7288H40.2487C40.7673 16.2088 40.9312 15.6083 41.6407 15.6083H41.7498C41.8862 14.9261 42.0773 14.4077 42.3229 13.9436H42.2684V13.9439Z" fill="white"/>
</svg>
