<svg width="52" height="32" viewBox="0 0 52 32" fill="none" xmlns="http://www.w3.org/2000/svg">
<rect x="0.890869" width="51" height="32" fill="white"/>
<path d="M20.7352 13.4598H18.2423C18.1598 13.4598 18.08 13.4892 18.0172 13.5428C17.9545 13.5964 17.9129 13.6707 17.9001 13.7522L16.8918 20.1445C16.8872 20.1741 16.8891 20.2045 16.8973 20.2333C16.9055 20.2622 16.9198 20.289 16.9394 20.3118C16.9589 20.3346 16.9832 20.3529 17.0104 20.3654C17.0377 20.3779 17.0674 20.3844 17.0974 20.3843H18.2875C18.3701 20.3844 18.45 20.3549 18.5128 20.3012C18.5755 20.2475 18.617 20.1732 18.6298 20.0916L18.9017 18.3675C18.9145 18.286 18.956 18.2117 19.0186 18.1581C19.0813 18.1044 19.1611 18.0749 19.2436 18.0748H20.0328C21.6749 18.0748 22.6226 17.2802 22.8701 15.7055C22.9816 15.0166 22.8748 14.4753 22.5522 14.0963C22.1979 13.68 21.5695 13.4598 20.7352 13.4598ZM21.0228 15.7945C20.8864 16.689 20.203 16.689 19.5422 16.689H19.166L19.4299 15.0185C19.4376 14.9696 19.4625 14.9251 19.5002 14.8929C19.5378 14.8608 19.5856 14.8431 19.6351 14.8431H19.8075C20.2577 14.8431 20.6823 14.8431 20.9018 15.0997C21.0326 15.2528 21.0727 15.4803 21.0228 15.7945ZM28.1867 15.7657H26.993C26.9435 15.7657 26.8957 15.7834 26.858 15.8155C26.8204 15.8476 26.7955 15.8921 26.7878 15.941L26.7349 16.2749L26.6514 16.1539C26.393 15.7788 25.8167 15.6534 25.2415 15.6534C23.9224 15.6534 22.7957 16.6525 22.5763 18.054C22.4622 18.7532 22.6244 19.4217 23.021 19.8879C23.3848 20.3165 23.9053 20.4951 24.5246 20.4951C25.5875 20.4951 26.1769 19.8117 26.1769 19.8117L26.1236 20.1434C26.1189 20.173 26.1206 20.2034 26.1288 20.2323C26.1369 20.2612 26.1511 20.288 26.1706 20.3109C26.1901 20.3338 26.2143 20.3521 26.2415 20.3647C26.2688 20.3774 26.2985 20.3839 26.3285 20.384H27.4038C27.4864 20.384 27.5662 20.3545 27.629 20.3008C27.6918 20.2472 27.7333 20.1728 27.7461 20.0913L28.3912 16.0055C28.396 15.9759 28.3942 15.9457 28.3861 15.9168C28.3781 15.888 28.3638 15.8612 28.3443 15.8384C28.3249 15.8156 28.3007 15.7973 28.2735 15.7847C28.2463 15.7722 28.2167 15.7657 28.1867 15.7657ZM26.5228 18.089C26.4076 18.771 25.8663 19.2288 25.1759 19.2288C24.8293 19.2288 24.5523 19.1177 24.3744 18.907C24.198 18.6978 24.1309 18.4 24.187 18.0683C24.2946 17.3921 24.845 16.9193 25.5248 16.9193C25.8638 16.9193 26.1393 17.032 26.3208 17.2445C26.5027 17.4592 26.5749 17.7588 26.5228 18.089ZM34.5444 15.7657H33.3448C33.2883 15.7658 33.2326 15.7797 33.1826 15.8062C33.1326 15.8326 33.0898 15.8709 33.058 15.9177L31.4035 18.3548L30.7022 16.0128C30.6807 15.9414 30.6367 15.8788 30.5768 15.8343C30.517 15.7898 30.4444 15.7657 30.3698 15.7657H29.1909C29.1579 15.7656 29.1252 15.7734 29.0958 15.7885C29.0663 15.8036 29.0409 15.8255 29.0216 15.8523C29.0023 15.8792 28.9897 15.9103 28.9849 15.9431C28.98 15.9758 28.9831 16.0092 28.9937 16.0405L30.3151 19.9181L29.0728 21.6718C29.0508 21.7028 29.0377 21.7394 29.035 21.7774C29.0323 21.8155 29.0402 21.8535 29.0577 21.8874C29.0752 21.9213 29.1017 21.9497 29.1342 21.9695C29.1668 21.9893 29.2042 21.9998 29.2423 21.9998H30.4405C30.4964 21.9999 30.5515 21.9864 30.6011 21.9605C30.6507 21.9346 30.6933 21.897 30.7251 21.8511L34.715 16.0919C34.7366 16.0608 34.7493 16.0243 34.7517 15.9864C34.754 15.9486 34.746 15.9108 34.7284 15.8772C34.7109 15.8436 34.6844 15.8154 34.652 15.7958C34.6195 15.7761 34.5823 15.7657 34.5444 15.7657Z" fill="#253B80"/>
<path d="M38.5159 13.4596H36.0226C35.9402 13.4596 35.8604 13.4891 35.7978 13.5427C35.7351 13.5963 35.6936 13.6705 35.6807 13.7519L34.6725 20.1442C34.6678 20.1738 34.6696 20.2041 34.6778 20.233C34.6859 20.2618 34.7002 20.2886 34.7197 20.3114C34.7391 20.3342 34.7633 20.3525 34.7905 20.365C34.8178 20.3776 34.8474 20.3841 34.8774 20.3841H36.1568C36.2145 20.384 36.2703 20.3633 36.3141 20.3258C36.358 20.2882 36.387 20.2362 36.3959 20.1792L36.682 18.3673C36.6948 18.2858 36.7363 18.2115 36.7989 18.1578C36.8616 18.1041 36.9414 18.0746 37.0239 18.0746H37.8127C39.4552 18.0746 40.4025 17.28 40.6504 15.7053C40.7623 15.0164 40.6548 14.4751 40.3322 14.096C39.9782 13.6798 39.3502 13.4596 38.5159 13.4596ZM38.8034 15.7942C38.6675 16.6887 37.984 16.6887 37.3228 16.6887H36.947L37.2113 15.0182C37.2189 14.9693 37.2437 14.9248 37.2813 14.8926C37.3188 14.8605 37.3667 14.8428 37.4161 14.8429H37.5886C38.0384 14.8429 38.4634 14.8429 38.6828 15.0995C38.8136 15.2526 38.8534 15.48 38.8034 15.7942ZM45.967 15.7654H44.774C44.7245 15.7653 44.6767 15.7829 44.6391 15.8151C44.6015 15.8473 44.5767 15.8919 44.5692 15.9408L44.5163 16.2747L44.4325 16.1536C44.174 15.7786 43.5981 15.6532 43.0229 15.6532C41.7038 15.6532 40.5775 16.6523 40.3581 18.0538C40.2443 18.7529 40.4058 19.4214 40.8024 19.8876C41.1669 20.3163 41.6867 20.4949 42.306 20.4949C43.3689 20.4949 43.9583 19.8114 43.9583 19.8114L43.905 20.1431C43.9003 20.1729 43.9021 20.2033 43.9102 20.2322C43.9184 20.2612 43.9327 20.288 43.9523 20.3109C43.9718 20.3338 43.9961 20.3522 44.0234 20.3647C44.0508 20.3773 44.0805 20.3838 44.1106 20.3837H45.1855C45.2681 20.3837 45.3479 20.3541 45.4105 20.3005C45.4732 20.2468 45.5147 20.1725 45.5274 20.091L46.173 16.0053C46.1776 15.9756 46.1757 15.9453 46.1674 15.9164C46.1592 15.8875 46.1448 15.8608 46.1252 15.838C46.1056 15.8152 46.0814 15.7969 46.0541 15.7844C46.0268 15.7719 45.9971 15.7654 45.967 15.7654ZM44.3031 18.0888C44.1886 18.7708 43.6466 19.2286 42.9562 19.2286C42.6103 19.2286 42.3326 19.1174 42.1547 18.9067C41.9783 18.6975 41.9119 18.3997 41.9673 18.068C42.0756 17.3919 42.6253 16.9191 43.3051 16.9191C43.6441 16.9191 43.9196 17.0317 44.1011 17.2442C44.2838 17.4589 44.3559 17.7586 44.3031 18.0888ZM47.3744 13.6349L46.3512 20.1442C46.3465 20.1738 46.3483 20.2041 46.3565 20.233C46.3646 20.2618 46.3789 20.2886 46.3984 20.3114C46.4178 20.3342 46.442 20.3525 46.4693 20.365C46.4965 20.3776 46.5261 20.3841 46.5561 20.3841H47.5847C47.7557 20.3841 47.9007 20.2601 47.927 20.0914L48.9359 13.6994C48.9406 13.6698 48.9388 13.6395 48.9307 13.6106C48.9226 13.5818 48.9083 13.555 48.8888 13.5322C48.8693 13.5094 48.8452 13.491 48.8179 13.4784C48.7907 13.4658 48.7611 13.4593 48.7311 13.4592H47.5792C47.5298 13.4594 47.482 13.4772 47.4445 13.5094C47.4069 13.5416 47.3821 13.5861 47.3744 13.6349Z" fill="#179BD7"/>
<path d="M6.53952 21.6262L6.73015 20.4153L6.30551 20.4055H4.27777L5.68694 11.4704C5.69114 11.4431 5.70501 11.4182 5.72601 11.4003C5.74702 11.3823 5.77378 11.3725 5.8014 11.3727H9.22045C10.3555 11.3727 11.1388 11.6089 11.5478 12.0751C11.7395 12.2938 11.8616 12.5223 11.9207 12.7738C11.9827 13.0377 11.9838 13.353 11.9232 13.7376L11.9189 13.7657V14.0121L12.1106 14.1207C12.257 14.1948 12.3885 14.2951 12.4988 14.4167C12.6628 14.6036 12.7689 14.8413 12.8137 15.1231C12.86 15.4128 12.8447 15.7577 12.7689 16.1481C12.6814 16.5971 12.54 16.9882 12.349 17.3083C12.1805 17.595 11.9539 17.8433 11.6838 18.0373C11.4301 18.2173 11.1286 18.354 10.7878 18.4415C10.4576 18.5275 10.081 18.5709 9.66806 18.5709H9.40197C9.2117 18.5709 9.02689 18.6394 8.88182 18.7623C8.73696 18.8864 8.64085 19.058 8.61063 19.2463L8.59058 19.3553L8.25378 21.4895L8.23847 21.5679C8.23446 21.5926 8.22754 21.605 8.21733 21.6134C8.20744 21.6215 8.19511 21.626 8.18234 21.6262H6.53952Z" fill="#253B80"/>
<path d="M12.2919 13.7947C12.2817 13.8599 12.2701 13.9266 12.2569 13.9952C11.806 16.3101 10.2635 17.1098 8.29332 17.1098H7.2902C7.04926 17.1098 6.84623 17.2848 6.80869 17.5225L6.2951 20.7797L6.14967 21.703C6.14387 21.7396 6.14609 21.777 6.15615 21.8127C6.16622 21.8484 6.18389 21.8815 6.20797 21.9097C6.23205 21.9379 6.26195 21.9605 6.29562 21.9761C6.32928 21.9916 6.36592 21.9996 6.403 21.9997H8.18214C8.39282 21.9997 8.5718 21.8466 8.60497 21.6388L8.62246 21.5484L8.95744 19.4226L8.97895 19.306C9.01175 19.0975 9.19109 18.9444 9.40177 18.9444H9.66786C11.3916 18.9444 12.741 18.2445 13.1354 16.2194C13.3001 15.3733 13.2148 14.6669 12.7789 14.1701C12.6407 14.0164 12.4757 13.8892 12.2919 13.7947Z" fill="#179BD7"/>
<path d="M11.8204 13.6065C11.6764 13.5649 11.53 13.5324 11.3819 13.5092C11.0893 13.4643 10.7936 13.4427 10.4976 13.4447H7.81778C7.7158 13.4446 7.61715 13.481 7.53967 13.5474C7.46219 13.6137 7.41099 13.7055 7.39532 13.8063L6.82524 17.4171L6.80884 17.5224C6.8266 17.4075 6.88491 17.3027 6.97323 17.227C7.06155 17.1513 7.17404 17.1097 7.29035 17.1098H8.29346C10.2636 17.1098 11.8062 16.3097 12.2571 13.9951C12.2706 13.9266 12.2819 13.8599 12.2921 13.7946C12.1731 13.7322 12.0491 13.6799 11.9214 13.6383C11.8879 13.6272 11.8542 13.6166 11.8204 13.6065Z" fill="#222D65"/>
<path d="M7.39518 13.8063C7.41071 13.7055 7.46188 13.6136 7.5394 13.5473C7.61692 13.4811 7.71564 13.4448 7.81764 13.4451H10.4975C10.815 13.4451 11.1113 13.4659 11.3818 13.5096C11.5648 13.5384 11.7453 13.5814 11.9216 13.6383C12.0546 13.6824 12.1782 13.7345 12.2923 13.7947C12.4264 12.9392 12.2912 12.3567 11.8286 11.8292C11.3187 11.2486 10.3983 11 9.22061 11H5.80157C5.56099 11 5.35578 11.175 5.3186 11.413L3.89448 20.4399C3.88785 20.4818 3.89037 20.5247 3.90188 20.5655C3.91339 20.6064 3.9336 20.6442 3.96114 20.6765C3.98868 20.7088 4.02288 20.7347 4.0614 20.7525C4.09991 20.7703 4.14183 20.7796 4.18426 20.7796H6.29511L6.82509 17.4171L7.39518 13.8063Z" fill="#253B80"/>
</svg>
