<svg width="51" height="32" viewBox="0 0 51 32" fill="none" xmlns="http://www.w3.org/2000/svg">
<rect width="51" height="32" fill="white"/>
<path d="M22.6018 21.9529H19.2887L21.3593 9.22739H24.6728L22.6018 21.9529ZM16.5015 9.22739L13.3429 17.9801L12.9691 16.0953L12.9695 16.096L11.8547 10.3732C11.8547 10.3732 11.7199 9.22739 10.283 9.22739H5.06127L5 9.44286C5 9.44286 6.59682 9.77509 8.46562 10.8974L11.3441 21.9533H14.7961L20.0672 9.22739H16.5015ZM42.5609 21.9529H45.603L42.9506 9.22705H40.2873C39.0575 9.22705 38.7579 10.1754 38.7579 10.1754L33.8166 21.9529H37.2704L37.961 20.0627H42.1728L42.5609 21.9529ZM38.9152 17.4515L40.656 12.6893L41.6353 17.4515H38.9152ZM34.0757 12.2876L34.5485 9.55485C34.5485 9.55485 33.0895 9 31.5686 9C29.9245 9 26.0201 9.71859 26.0201 13.2128C26.0201 16.5004 30.6026 16.5412 30.6026 18.2681C30.6026 19.995 26.4922 19.6855 25.1357 18.5966L24.6432 21.4539C24.6432 21.4539 26.1226 22.1725 28.3828 22.1725C30.6438 22.1725 34.0546 21.0019 34.0546 17.8157C34.0546 14.507 29.4309 14.1989 29.4309 12.7604C29.4313 11.3215 32.6579 11.5064 34.0757 12.2876Z" fill="#2566AF"/>
<path d="M12.9695 16.0954L11.8547 10.3726C11.8547 10.3726 11.7199 9.22681 10.283 9.22681H5.06127L5 9.44228C5 9.44228 7.50978 9.96241 9.91709 11.9112C12.2189 13.7739 12.9695 16.0954 12.9695 16.0954Z" fill="#E6A540"/>
</svg>
